<svg xmlns="http://www.w3.org/2000/svg" style="border: 0 !important; clip: rect(0 0 0 0) !important; height: 1px !important; margin: -1px !important; overflow: hidden !important; padding: 0 !important; position: absolute !important; width: 1px !important;" class="root-svg-symbols-element">
    <symbol id="checkmark" viewBox="0 0 44 43.969">
      <path id="checkmark.svg" class="cls-1" d="M652.479 376.378a1.059 1.059 0 0 0-1.059 1.059v26.446h-33.3v-33.3h25.895a1.059 1.059 0 0 0 0-2.117h-26.957a1.058 1.058 0 0 0-1.058 1.055v35.42a1.059 1.059 0 0 0 1.058 1.059h35.421a1.059 1.059 0 0 0 1.058-1.059v-27.5a1.059 1.059 0 0 0-1.058-1.063zm7.211-14.068a1.059 1.059 0 0 0-1.5 0l-28.007 28.007-6.949-6.949a1.059 1.059 0 1 0-1.5 1.5l7.7 7.7a1.056 1.056 0 0 0 1.5 0l28.755-28.755a1.059 1.059 0 0 0 .001-1.503z" transform="translate(-616 -362.031)"/>
    </symbol>
    <symbol id="expertiza" viewBox="0 0 86 74">
      <path id="expertiza.svg" class="cls-1" d="M702.61 4757.09a2.226 2.226 0 0 0-3.109-.59l-24.381 16.63-5.415-7.25a2.263 2.263 0 0 0-3.958 2.07l4.432 13.33a4.162 4.162 0 0 0 .811 1.4 3.994 3.994 0 0 0 5.621.31l.289-.26 25.354-22.71a2.241 2.241 0 0 0 .356-2.93zm-40.873 19.89h-42.271v-64.51h62.959v48.48c0 1.24 0 2.24 1.233 2.24s1.233-1 1.233-2.24v-48.72a2.233 2.233 0 0 0-2.233-2.23h-63.425a2.233 2.233 0 0 0-2.233 2.23v64.98a2.235 2.235 0 0 0 2.233 2.24h42.5c1.232 0 2.232 0 2.232-1.24s-.996-1.23-2.228-1.23zm7.25-52.95H632.9c-1.233 0-2.233 0-2.233 1.23s1 1.24 2.233 1.24h36.083c1.233 0 2.233 0 2.233-1.24s-.996-1.23-2.229-1.23zm0 9.66H632.9c-1.233 0-2.233 0-2.233 1.23s1 1.23 2.233 1.23h36.083c1.233 0 2.233 0 2.233-1.23s-.996-1.23-2.229-1.23zm0 9.65H632.9c-1.233 0-2.233 0-2.233 1.24s1 1.23 2.233 1.23h36.083c1.233 0 2.233 0 2.233-1.23s-.996-1.24-2.229-1.24zm2.233 10.9c0-1.24-1-1.24-2.233-1.24H632.9c-1.233 0-2.233 0-2.233 1.24s1 1.23 2.233 1.23h36.083c1.237 0 2.237 0 2.237-1.23zm-38.316 7.95c-1.233 0-2.233 0-2.233 1.23s1 1.24 2.233 1.24h18.041c1.233 0 2.233 0 2.233-1.24s-1-1.23-2.233-1.23H632.9z" transform="translate(-617 -4710)"/>
    </symbol>
    <symbol id="geografia" viewBox="0 0 73 73">
      <path id="geografia.svg" class="cls-1" d="M1386.3 4468.7a36.455 36.455 0 1 0 10.7 25.8 36.216 36.216 0 0 0-10.7-25.8zm7.39 24.16h-14.15a62.93 62.93 0 0 0-2.31-15.86 36.148 36.148 0 0 0 7.52-5.19 33.1 33.1 0 0 1 8.94 21.05zm-31.55 3.28h14.14a60.263 60.263 0 0 1-2.07 14.58 37.153 37.153 0 0 0-12.07-2.62v-11.96zm20.26-26.61a33.722 33.722 0 0 1-6.2 4.31 36.212 36.212 0 0 0-1.92-4.47 26.065 26.065 0 0 0-4.8-6.86 33.145 33.145 0 0 1 12.92 7.02zm-20.26-7.75c3.41.76 6.63 3.91 9.22 9.03a37.072 37.072 0 0 1 1.88 4.43 33.452 33.452 0 0 1-11.1 2.48v-15.94zm12.08 16.6a60.04 60.04 0 0 1 2.04 14.5h-14.12v-11.86a37.12 37.12 0 0 0 12.08-2.64zm-15.36 14.48h-14.14a60.027 60.027 0 0 1 2.04-14.49 36.505 36.505 0 0 0 12.09 2.62v11.87h.01zm0-31.08v15.94a33.4 33.4 0 0 1-11.1-2.48 37.072 37.072 0 0 1 1.88-4.43c2.59-5.12 5.81-8.27 9.22-9.03zm-7.34.73a26.232 26.232 0 0 0-4.8 6.86 43.534 43.534 0 0 0-1.92 4.47 34.064 34.064 0 0 1-6.2-4.31 33.145 33.145 0 0 1 12.92-7.02zm-15.27 9.3a36.928 36.928 0 0 0 7.52 5.19 62.547 62.547 0 0 0-2.31 15.86h-14.15a33.1 33.1 0 0 1 8.94-21.05zm-8.94 24.33h14.15a63.111 63.111 0 0 0 2.34 15.95 35.817 35.817 0 0 0-7.49 5.16 33.085 33.085 0 0 1-9-21.11zm11.35 23.39a33.537 33.537 0 0 1 6.17-4.28 38.749 38.749 0 0 0 1.89 4.38 26.3 26.3 0 0 0 4.8 6.87 33.265 33.265 0 0 1-12.86-6.97zm20.2 7.69c-3.41-.76-6.63-3.91-9.22-9.03a37.24 37.24 0 0 1-1.85-4.34 33.079 33.079 0 0 1 11.07-2.47v15.84zm-12.07-16.5a60.263 60.263 0 0 1-2.07-14.58h14.14v11.96a36.143 36.143 0 0 0-12.07 2.62zm15.35 16.5v-15.84a33.325 33.325 0 0 1 11.07 2.47 37.24 37.24 0 0 1-1.85 4.34c-2.59 5.12-5.81 8.27-9.22 9.03zm7.34-.73a26.128 26.128 0 0 0 4.8-6.87 39.549 39.549 0 0 0 1.89-4.38 33.977 33.977 0 0 1 6.17 4.27 32.9 32.9 0 0 1-12.86 6.98zm15.23-9.24a36.865 36.865 0 0 0-7.49-5.16 63.185 63.185 0 0 0 2.33-15.95h14.16a33.3 33.3 0 0 1-9 21.11z" transform="translate(-1324 -4458)"/>
    </symbol>
    <symbol id="mail" viewBox="0 0 18 14.125">
      <path class="cls-1" d="M17 5.421q-3.3 2.23-5 3.465-.572.422-.929.658a5.744 5.744 0 0 1-.949.482 2.892 2.892 0 0 1-1.105.246h-.02a2.892 2.892 0 0 1-1.105-.246 5.7 5.7 0 0 1-.949-.482q-.357-.236-.929-.658-1.356-.994-4.992-3.465A5.327 5.327 0 0 1 0 4.547v7.975a1.612 1.612 0 0 0 1.607 1.607h14.786A1.612 1.612 0 0 0 18 12.522V4.547a5.565 5.565 0 0 1-1 .874zm.527-4.962a1.553 1.553 0 0 0-1.13-.472H1.607a1.434 1.434 0 0 0-1.19.522A2.027 2.027 0 0 0 0 1.815a2.347 2.347 0 0 0 .552 1.371 4.986 4.986 0 0 0 1.176 1.16q.341.241 2.059 1.431T6.419 7.61l.426.306c.217.157.4.285.543.382s.318.206.522.326a3.032 3.032 0 0 0 .578.271 1.6 1.6 0 0 0 .5.09h.02a1.6 1.6 0 0 0 .5-.09 3.06 3.06 0 0 0 .578-.271q.306-.181.522-.326t.543-.382q.325-.236.426-.306l4.7-3.264a4.772 4.772 0 0 0 1.226-1.236A2.655 2.655 0 0 0 18 1.594a1.54 1.54 0 0 0-.477-1.135z"/>
    </symbol>
    <symbol id="menu" viewBox="0 0 17.157 17.157">
      <path d="M16.407 1.938H.75a.75.75 0 0 0 0 1.5h15.657a.75.75 0 0 0 0-1.5zm-.347 4.177H.75a.75.75 0 1 0 0 1.5h15.31a.75.75 0 0 0 0-1.5zm0 3.665H.75a.75.75 0 0 0 0 1.5h15.31a.75.75 0 0 0 0-1.5zm0 3.939H.75a.75.75 0 0 0 0 1.5h15.31a.75.75 0 0 0 0-1.5z" fill-rule="evenodd"/>
    </symbol>
    <symbol id="menu_back" viewBox="0 0 284.935 284.936">
      <path d="M110.488 142.468L222.694 30.264c1.902-1.903 2.854-4.093 2.854-6.567s-.951-4.664-2.854-6.563L208.417 2.857C206.513.955 204.324 0 201.856 0c-2.475 0-4.664.955-6.567 2.857L62.24 135.9c-1.903 1.903-2.852 4.093-2.852 6.567 0 2.475.949 4.664 2.852 6.567l133.042 133.043c1.906 1.906 4.097 2.857 6.571 2.857 2.471 0 4.66-.951 6.563-2.857l14.277-14.267c1.902-1.903 2.851-4.094 2.851-6.57 0-2.472-.948-4.661-2.851-6.564L110.488 142.468z"/>
    </symbol>
    <symbol id="otvetstvennost" viewBox="0 0 74 74">
      <path id="otvetstvennost.svg" class="cls-1" d="M532.967 4482.46a6.31 6.31 0 1 0-6.322-6.31 6.323 6.323 0 0 0 6.322 6.31zm0-10.27a3.955 3.955 0 1 1-3.961 3.96 3.967 3.967 0 0 1 3.961-3.96zm4.218 22.1a18.163 18.163 0 0 0 16.967-11.6h11.779l4.731 4.72a1.183 1.183 0 0 0 1.67 0l4.241-4.24 4.242 4.24a1.2 1.2 0 0 0 1.681-.01l10.167-10.43a1.181 1.181 0 0 0 .008-1.64l-5.135-5.36a1.189 1.189 0 0 0-.854-.36h-32.3a19.077 19.077 0 0 0-6.431-8.11 18.168 18.168 0 1 0-10.766 32.79zm0-33.93a16.48 16.48 0 0 1 15.288 10.84 1.176 1.176 0 0 0 1.107.76h32.6l4 4.18-8.538 8.76-4.231-4.23a1.194 1.194 0 0 0-1.669 0l-4.242 4.24-4.242-4.24a1.179 1.179 0 0 0-.835-.34h-13.1a1.174 1.174 0 0 0-1.121.81 15.819 15.819 0 1 1-15.017-20.78zm17 16.96H585a1.175 1.175 0 1 0 0-2.35h-30.81a1.175 1.175 0 1 0-.002 2.35zm-34.007 29.54h22.242a1.181 1.181 0 0 0 1.18-1.18v-6.28a1.181 1.181 0 0 0-1.18-1.18h-22.239a1.182 1.182 0 0 0-1.181 1.18v6.28a1.182 1.182 0 0 0 1.181 1.18zm1.181-6.28h19.877v3.93h-19.874v-3.93zm70.455-2.36h-14.363a1.181 1.181 0 0 0-1.181 1.18v6.28a1.181 1.181 0 0 0 1.181 1.18h14.366a1.182 1.182 0 0 0 1.181-1.18v-6.28a1.182 1.182 0 0 0-1.181-1.18zm-1.181 6.29h-12v-3.93h12v3.93zm-16.728 1.17v-6.28a1.182 1.182 0 0 0-1.181-1.18h-25.581a1.182 1.182 0 0 0-1.181 1.18v6.28a1.182 1.182 0 0 0 1.181 1.18h25.584a1.182 1.182 0 0 0 1.181-1.18zm-2.362-1.17h-23.219v-3.93h23.222v3.93zm-51.365 14.92h14.366a1.181 1.181 0 0 0 1.181-1.18v-6.28a1.181 1.181 0 0 0-1.181-1.18h-14.363a1.182 1.182 0 0 0-1.181 1.18v6.28a1.182 1.182 0 0 0 1.181 1.18zm1.181-6.28h12v3.92h-12v-3.92zm70.455-2.36h-28.533a1.182 1.182 0 0 0-1.181 1.18v6.28a1.182 1.182 0 0 0 1.181 1.18h28.536a1.182 1.182 0 0 0 1.181-1.18v-6.28a1.182 1.182 0 0 0-1.181-1.18zm-1.181 6.28h-26.171v-3.92h26.174v3.92zm-51.365-6.28a1.182 1.182 0 0 0-1.181 1.18v6.28a1.182 1.182 0 0 0 1.181 1.18h19.287a1.181 1.181 0 0 0 1.18-1.18v-6.28a1.181 1.181 0 0 0-1.18-1.18h-19.284zm18.106 6.28h-16.922v-3.92h16.925v3.92zm-10.234 6.29h-26.959a1.182 1.182 0 0 0-1.181 1.18v6.28a1.182 1.182 0 0 0 1.181 1.18h26.962a1.182 1.182 0 0 0 1.181-1.18v-6.28a1.182 1.182 0 0 0-1.181-1.18zm-1.181 6.28h-24.6v-3.92h24.6v3.92zm45.855-6.28h-22.235a1.181 1.181 0 0 0-1.181 1.18v6.28a1.181 1.181 0 0 0 1.181 1.18h22.238a1.182 1.182 0 0 0 1.181-1.18v-6.28a1.182 1.182 0 0 0-1.181-1.18zm-1.181 6.28h-19.874v-3.92h19.877v3.92zm-25.781-6.28h-12.986a1.182 1.182 0 0 0-1.181 1.18v6.28a1.182 1.182 0 0 0 1.181 1.18h12.989a1.182 1.182 0 0 0 1.181-1.18v-6.28a1.182 1.182 0 0 0-1.181-1.18zm-1.181 6.28h-10.624v-3.92h10.627v3.92z" transform="translate(-519 -4458)"/>
    </symbol>
    <symbol id="phone" viewBox="0 0 15.72 15.719">
      <path class="cls-1" d="M15.68 12.191a1.9 1.9 0 0 0-.85-.592q-.21-.123-.6-.335c-.26-.141-.5-.271-.71-.391s-.41-.234-.6-.346l-.27-.2a3.265 3.265 0 0 0-.4-.24.76.76 0 0 0-.32-.078.944.944 0 0 0-.56.318 5.211 5.211 0 0 0-.61.692 7 7 0 0 1-.59.692.85.85 0 0 1-.52.318.78.78 0 0 1-.25-.056c-.1-.037-.17-.069-.23-.095s-.14-.078-.26-.156-.2-.121-.22-.128a11.691 11.691 0 0 1-2.62-1.942 11.515 11.515 0 0 1-1.94-2.623c-.01-.015-.05-.085-.13-.212s-.13-.216-.16-.268-.05-.128-.09-.229a.709.709 0 0 1-.06-.251.866.866 0 0 1 .32-.513 6.427 6.427 0 0 1 .69-.591 6.051 6.051 0 0 0 .7-.614.915.915 0 0 0 .31-.558.745.745 0 0 0-.07-.318q-.09-.162-.24-.4c-.11-.156-.18-.249-.2-.279-.11-.186-.23-.385-.35-.6s-.24-.448-.39-.709-.25-.461-.33-.6a1.948 1.948 0 0 0-.59-.848.631.631 0 0 0-.24-.034 3.615 3.615 0 0 0-.78.112 4.463 4.463 0 0 0-.77.234A3.021 3.021 0 0 0 .57 1.713 4.323 4.323 0 0 0 0 3.789a3.751 3.751 0 0 0 .04.586 4.982 4.982 0 0 0 .14.642c.07.238.12.415.16.53s.12.322.23.619.18.48.2.547a9.917 9.917 0 0 0 .93 1.953 16.41 16.41 0 0 0 2.4 2.952 16.784 16.784 0 0 0 2.95 2.405 10.35 10.35 0 0 0 1.96.926c.06.022.25.089.54.2l.62.229c.12.041.29.095.53.162a5.2 5.2 0 0 0 .64.139 4.16 4.16 0 0 0 2.67-.53 3.015 3.015 0 0 0 1.36-1.183 4.26 4.26 0 0 0 .23-.764 3.341 3.341 0 0 0 .11-.787.692.692 0 0 0-.03-.234z"/>
    </symbol>
    <symbol id="point" viewBox="0 0 10.28 15.44">
      <path id="point.svg" class="cls-1" d="M1253.14 6451.48a2.574 2.574 0 0 1-1.82-4.39 2.57 2.57 0 0 1 4.39 1.82 2.578 2.578 0 0 1-2.57 2.57zm3.64-6.21a5.13 5.13 0 0 0-7.27 0 4.938 4.938 0 0 0-1.51 3.64 4.177 4.177 0 0 0 .33 1.79l3.67 7.78a1.158 1.158 0 0 0 .46.52 1.3 1.3 0 0 0 .68.19 1.295 1.295 0 0 0 1.16-.71l3.65-7.78a4.023 4.023 0 0 0 .34-1.79 4.976 4.976 0 0 0-1.51-3.64z" transform="translate(-1248 -6443.75)"/>
    </symbol>
    <symbol id="red-arrow" viewBox="0 0 13.66 10">
      <path d="M0 7h7v3l6.66-5L7 0v3H0v4z" fill="#ed1b2e"/>
    </symbol>
    <symbol id="smallcheck" viewBox="0 0 13.82 10.62">
      <path id="smallcheck.svg" class="cls-1" d="M1059.67 1035.88l-1.21-1.22a.869.869 0 0 0-1.22 0l-5.86 5.87-2.62-2.63a.869.869 0 0 0-1.22 0l-1.21 1.21a.869.869 0 0 0 0 1.22l3.23 3.23 1.22 1.21a.8.8 0 0 0 .6.25.822.822 0 0 0 .61-.25l1.22-1.21 6.46-6.47a.8.8 0 0 0 .25-.6.822.822 0 0 0-.25-.61z" transform="translate(-1046.09 -1034.41)"/>
    </symbol>
    <symbol id="specializacia" viewBox="0 0 59 76">
      <path id="specializacia.svg" class="cls-1" d="M982 4530h-47a6 6 0 0 1-6-6v-64a6 6 0 0 1 6-6h47a6 6 0 0 1 6 6v64a6 6 0 0 1-6 6zm3-68a5 5 0 0 0-5-5h-43a5 5 0 0 0-5 5v7a2 2 0 0 0 2 2h49a2 2 0 0 0 2-2v-7zm0 14a2 2 0 0 0-2-2h-49a2 2 0 0 0-2 2v46a5 5 0 0 0 5 5h43a5 5 0 0 0 5-5v-46zm-30 32s-9.636-5.24-3-16c1.092 1.67 1.332 4.5 5 4 .063-.81-2.668-9.85 4-11-.152 1.79-.685 5.35 4 7s5.622 11.5-2 15c.081-2.61-.341-5.73-3-7-.965 2.4-1.108 5.1-5 8zm-6 7h20v2h-20v-2z" transform="translate(-929 -4454)"/>
    </symbol>
    <symbol id="species" viewBox="0 0 273 254.75">
      <path class="cls-1" d="M35.24 100.4L1.5 103.26v149.96l170 .03 100-.01V96.31l-100-12.25-29.807 3.45V51.78h-1.019v-3.54h4.454v-9.77H128.62v8.21h3.31v3.78h-1.161v37.68l-19.4 2.56V1.49L74.833 8.04v86.74l-5.738 1.07V17.34l-32.539 7.45z"/>
    </symbol>
    <symbol id="stoimost" viewBox="0 0 75 75">
      <path id="stoimost.svg" class="cls-1" d="M1273.24 4730.36l15.78 4.15 3.98-15.79-3.03-.79-2.59 9.84a37.491 37.491 0 1 0 .51 38.63l-2.71-1.47a34.421 34.421 0 1 1 .15-34.6l-11.29-3zm-16.09 33.78v-2.86a9.952 9.952 0 0 0 6.37-2.39 7.254 7.254 0 0 0 2.39-5.57c0-2.39-.64-4.15-2.07-5.27a13.855 13.855 0 0 0-6.53-2.86h-.16v-7.33a12.025 12.025 0 0 1 5.57 2.23l2.56-3.5a15.667 15.667 0 0 0-8.13-2.87v-1.91h-2.38v1.91a9.851 9.851 0 0 0-6.07 2.39 7.246 7.246 0 0 0-2.38 5.57 6.135 6.135 0 0 0 2.06 5.1 14.932 14.932 0 0 0 6.37 2.71v7.48a13.208 13.208 0 0 1-6.69-3.35l-2.86 3.35a16.387 16.387 0 0 0 9.57 4.31v2.86h2.38zm.16-13.87a9.758 9.758 0 0 1 3.18 1.44 3.5 3.5 0 0 1 .8 2.23 2.607 2.607 0 0 1-1.12 2.24 5.847 5.847 0 0 1-2.86 1.12v-7.03zm-5.58-6.84a3.056 3.056 0 0 1-.79-2.07 2.925 2.925 0 0 1 .95-2.23 5.225 5.225 0 0 1 2.86-1.12v6.86a7.8 7.8 0 0 1-3.02-1.44z" transform="translate(-1218 -4710)"/>
    </symbol></svg>