<svg xmlns="http://www.w3.org/2000/svg" width="74" height="74" viewBox="0 0 74 74"><defs><style>.cls-1{fill:#008349;fill-rule:evenodd}</style></defs><path id="otvetstvennost.svg" class="cls-1" d="M532.967 4482.46a6.31 6.31 0 1 0-6.322-6.31 6.323 6.323 0 0 0 6.322 6.31zm0-10.27a3.955 3.955 0 1 1-3.961 3.96 3.967 3.967 0 0 1 3.961-3.96zm4.218 22.1a18.163 18.163 0 0 0 16.967-11.6h11.779l4.731 4.72a1.183 1.183 0 0 0 1.67 0l4.241-4.24 4.242 4.24a1.2 1.2 0 0 0 1.681-.01l10.167-10.43a1.181 1.181 0 0 0 .008-1.64l-5.135-5.36a1.189 1.189 0 0 0-.854-.36h-32.3a19.077 19.077 0 0 0-6.431-8.11 18.168 18.168 0 1 0-10.766 32.79zm0-33.93a16.48 16.48 0 0 1 15.288 10.84 1.176 1.176 0 0 0 1.107.76h32.6l4 4.18-8.538 8.76-4.231-4.23a1.194 1.194 0 0 0-1.669 0l-4.242 4.24-4.242-4.24a1.179 1.179 0 0 0-.835-.34h-13.1a1.174 1.174 0 0 0-1.121.81 15.819 15.819 0 1 1-15.017-20.78zm17 16.96H585a1.175 1.175 0 1 0 0-2.35h-30.81a1.175 1.175 0 1 0-.002 2.35zm-34.007 29.54h22.242a1.181 1.181 0 0 0 1.18-1.18v-6.28a1.181 1.181 0 0 0-1.18-1.18h-22.239a1.182 1.182 0 0 0-1.181 1.18v6.28a1.182 1.182 0 0 0 1.181 1.18zm1.181-6.28h19.877v3.93h-19.874v-3.93zm70.455-2.36h-14.363a1.181 1.181 0 0 0-1.181 1.18v6.28a1.181 1.181 0 0 0 1.181 1.18h14.366a1.182 1.182 0 0 0 1.181-1.18v-6.28a1.182 1.182 0 0 0-1.181-1.18zm-1.181 6.29h-12v-3.93h12v3.93zm-16.728 1.17v-6.28a1.182 1.182 0 0 0-1.181-1.18h-25.581a1.182 1.182 0 0 0-1.181 1.18v6.28a1.182 1.182 0 0 0 1.181 1.18h25.584a1.182 1.182 0 0 0 1.181-1.18zm-2.362-1.17h-23.219v-3.93h23.222v3.93zm-51.365 14.92h14.366a1.181 1.181 0 0 0 1.181-1.18v-6.28a1.181 1.181 0 0 0-1.181-1.18h-14.363a1.182 1.182 0 0 0-1.181 1.18v6.28a1.182 1.182 0 0 0 1.181 1.18zm1.181-6.28h12v3.92h-12v-3.92zm70.455-2.36h-28.533a1.182 1.182 0 0 0-1.181 1.18v6.28a1.182 1.182 0 0 0 1.181 1.18h28.536a1.182 1.182 0 0 0 1.181-1.18v-6.28a1.182 1.182 0 0 0-1.181-1.18zm-1.181 6.28h-26.171v-3.92h26.174v3.92zm-51.365-6.28a1.182 1.182 0 0 0-1.181 1.18v6.28a1.182 1.182 0 0 0 1.181 1.18h19.287a1.181 1.181 0 0 0 1.18-1.18v-6.28a1.181 1.181 0 0 0-1.18-1.18h-19.284zm18.106 6.28h-16.922v-3.92h16.925v3.92zm-10.234 6.29h-26.959a1.182 1.182 0 0 0-1.181 1.18v6.28a1.182 1.182 0 0 0 1.181 1.18h26.962a1.182 1.182 0 0 0 1.181-1.18v-6.28a1.182 1.182 0 0 0-1.181-1.18zm-1.181 6.28h-24.6v-3.92h24.6v3.92zm45.855-6.28h-22.235a1.181 1.181 0 0 0-1.181 1.18v6.28a1.181 1.181 0 0 0 1.181 1.18h22.238a1.182 1.182 0 0 0 1.181-1.18v-6.28a1.182 1.182 0 0 0-1.181-1.18zm-1.181 6.28h-19.874v-3.92h19.877v3.92zm-25.781-6.28h-12.986a1.182 1.182 0 0 0-1.181 1.18v6.28a1.182 1.182 0 0 0 1.181 1.18h12.989a1.182 1.182 0 0 0 1.181-1.18v-6.28a1.182 1.182 0 0 0-1.181-1.18zm-1.181 6.28h-10.624v-3.92h10.627v3.92z" transform="translate(-519 -4458)"/></svg>