<svg xmlns="http://www.w3.org/2000/svg" width="44" height="43.969" viewBox="0 0 44 43.969"><defs><style>.cls-1{fill:#fff;fill-rule:evenodd}</style></defs><path id="checkmark.svg" class="cls-1" d="M652.479 376.378a1.059 1.059 0 0 0-1.059 1.059v26.446h-33.3v-33.3h25.895a1.059 1.059 0 0 0 0-2.117h-26.957a1.058 1.058 0 0 0-1.058 1.055v35.42a1.059 1.059 0 0 0 1.058 1.059h35.421a1.059 1.059 0 0 0 1.058-1.059v-27.5a1.059 1.059 0 0 0-1.058-1.063zm7.211-14.068a1.059 1.059 0 0 0-1.5 0l-28.007 28.007-6.949-6.949a1.059 1.059 0 1 0-1.5 1.5l7.7 7.7a1.056 1.056 0 0 0 1.5 0l28.755-28.755a1.059 1.059 0 0 0 .001-1.503z" transform="translate(-616 -362.031)"/></svg>