<svg xmlns="http://www.w3.org/2000/svg" width="86" height="74" viewBox="0 0 86 74"><defs><style>.cls-1{fill:#008349;fill-rule:evenodd}</style></defs><path id="expertiza.svg" class="cls-1" d="M702.61 4757.09a2.226 2.226 0 0 0-3.109-.59l-24.381 16.63-5.415-7.25a2.263 2.263 0 0 0-3.958 2.07l4.432 13.33a4.162 4.162 0 0 0 .811 1.4 3.994 3.994 0 0 0 5.621.31l.289-.26 25.354-22.71a2.241 2.241 0 0 0 .356-2.93zm-40.873 19.89h-42.271v-64.51h62.959v48.48c0 1.24 0 2.24 1.233 2.24s1.233-1 1.233-2.24v-48.72a2.233 2.233 0 0 0-2.233-2.23h-63.425a2.233 2.233 0 0 0-2.233 2.23v64.98a2.235 2.235 0 0 0 2.233 2.24h42.5c1.232 0 2.232 0 2.232-1.24s-.996-1.23-2.228-1.23zm7.25-52.95H632.9c-1.233 0-2.233 0-2.233 1.23s1 1.24 2.233 1.24h36.083c1.233 0 2.233 0 2.233-1.24s-.996-1.23-2.229-1.23zm0 9.66H632.9c-1.233 0-2.233 0-2.233 1.23s1 1.23 2.233 1.23h36.083c1.233 0 2.233 0 2.233-1.23s-.996-1.23-2.229-1.23zm0 9.65H632.9c-1.233 0-2.233 0-2.233 1.24s1 1.23 2.233 1.23h36.083c1.233 0 2.233 0 2.233-1.23s-.996-1.24-2.229-1.24zm2.233 10.9c0-1.24-1-1.24-2.233-1.24H632.9c-1.233 0-2.233 0-2.233 1.24s1 1.23 2.233 1.23h36.083c1.237 0 2.237 0 2.237-1.23zm-38.316 7.95c-1.233 0-2.233 0-2.233 1.23s1 1.24 2.233 1.24h18.041c1.233 0 2.233 0 2.233-1.24s-1-1.23-2.233-1.23H632.9z" transform="translate(-617 -4710)"/></svg>