<svg xmlns="http://www.w3.org/2000/svg" width="73" height="73" viewBox="0 0 73 73"><defs><style>.cls-1{fill:#008349;fill-rule:evenodd}</style></defs><path id="geografia.svg" class="cls-1" d="M1386.3 4468.7a36.455 36.455 0 1 0 10.7 25.8 36.216 36.216 0 0 0-10.7-25.8zm7.39 24.16h-14.15a62.93 62.93 0 0 0-2.31-15.86 36.148 36.148 0 0 0 7.52-5.19 33.1 33.1 0 0 1 8.94 21.05zm-31.55 3.28h14.14a60.263 60.263 0 0 1-2.07 14.58 37.153 37.153 0 0 0-12.07-2.62v-11.96zm20.26-26.61a33.722 33.722 0 0 1-6.2 4.31 36.212 36.212 0 0 0-1.92-4.47 26.065 26.065 0 0 0-4.8-6.86 33.145 33.145 0 0 1 12.92 7.02zm-20.26-7.75c3.41.76 6.63 3.91 9.22 9.03a37.072 37.072 0 0 1 1.88 4.43 33.452 33.452 0 0 1-11.1 2.48v-15.94zm12.08 16.6a60.04 60.04 0 0 1 2.04 14.5h-14.12v-11.86a37.12 37.12 0 0 0 12.08-2.64zm-15.36 14.48h-14.14a60.027 60.027 0 0 1 2.04-14.49 36.505 36.505 0 0 0 12.09 2.62v11.87h.01zm0-31.08v15.94a33.4 33.4 0 0 1-11.1-2.48 37.072 37.072 0 0 1 1.88-4.43c2.59-5.12 5.81-8.27 9.22-9.03zm-7.34.73a26.232 26.232 0 0 0-4.8 6.86 43.534 43.534 0 0 0-1.92 4.47 34.064 34.064 0 0 1-6.2-4.31 33.145 33.145 0 0 1 12.92-7.02zm-15.27 9.3a36.928 36.928 0 0 0 7.52 5.19 62.547 62.547 0 0 0-2.31 15.86h-14.15a33.1 33.1 0 0 1 8.94-21.05zm-8.94 24.33h14.15a63.111 63.111 0 0 0 2.34 15.95 35.817 35.817 0 0 0-7.49 5.16 33.085 33.085 0 0 1-9-21.11zm11.35 23.39a33.537 33.537 0 0 1 6.17-4.28 38.749 38.749 0 0 0 1.89 4.38 26.3 26.3 0 0 0 4.8 6.87 33.265 33.265 0 0 1-12.86-6.97zm20.2 7.69c-3.41-.76-6.63-3.91-9.22-9.03a37.24 37.24 0 0 1-1.85-4.34 33.079 33.079 0 0 1 11.07-2.47v15.84zm-12.07-16.5a60.263 60.263 0 0 1-2.07-14.58h14.14v11.96a36.143 36.143 0 0 0-12.07 2.62zm15.35 16.5v-15.84a33.325 33.325 0 0 1 11.07 2.47 37.24 37.24 0 0 1-1.85 4.34c-2.59 5.12-5.81 8.27-9.22 9.03zm7.34-.73a26.128 26.128 0 0 0 4.8-6.87 39.549 39.549 0 0 0 1.89-4.38 33.977 33.977 0 0 1 6.17 4.27 32.9 32.9 0 0 1-12.86 6.98zm15.23-9.24a36.865 36.865 0 0 0-7.49-5.16 63.185 63.185 0 0 0 2.33-15.95h14.16a33.3 33.3 0 0 1-9 21.11z" transform="translate(-1324 -4458)"/></svg>