<svg xmlns="http://www.w3.org/2000/svg" width="18" height="14.125" viewBox="0 0 18 14.125"><defs><style>.cls-1{fill:#ed1b2e;fill-rule:evenodd}</style></defs><path class="cls-1" d="M17 5.421q-3.3 2.23-5 3.465-.572.422-.929.658a5.744 5.744 0 0 1-.949.482 2.892 2.892 0 0 1-1.105.246h-.02a2.892 2.892 0 0 1-1.105-.246 5.7 5.7 0 0 1-.949-.482q-.357-.236-.929-.658-1.356-.994-4.992-3.465A5.327 5.327 0 0 1 0 4.547v7.975a1.612 1.612 0 0 0 1.607 1.607h14.786A1.612 1.612 0 0 0 18 12.522V4.547a5.565 5.565 0 0 1-1 .874zm.527-4.962a1.553 1.553 0 0 0-1.13-.472H1.607a1.434 1.434 0 0 0-1.19.522A2.027 2.027 0 0 0 0 1.815a2.347 2.347 0 0 0 .552 1.371 4.986 4.986 0 0 0 1.176 1.16q.341.241 2.059 1.431T6.419 7.61l.426.306c.217.157.4.285.543.382s.318.206.522.326a3.032 3.032 0 0 0 .578.271 1.6 1.6 0 0 0 .5.09h.02a1.6 1.6 0 0 0 .5-.09 3.06 3.06 0 0 0 .578-.271q.306-.181.522-.326t.543-.382q.325-.236.426-.306l4.7-3.264a4.772 4.772 0 0 0 1.226-1.236A2.655 2.655 0 0 0 18 1.594a1.54 1.54 0 0 0-.477-1.135z"/></svg>