<svg xmlns="http://www.w3.org/2000/svg" width="15.72" height="15.719" viewBox="0 0 15.72 15.719"><defs><style>.cls-1{fill:#ed1b2e;fill-rule:evenodd}</style></defs><path class="cls-1" d="M15.68 12.191a1.9 1.9 0 0 0-.85-.592q-.21-.123-.6-.335c-.26-.141-.5-.271-.71-.391s-.41-.234-.6-.346l-.27-.2a3.265 3.265 0 0 0-.4-.24.76.76 0 0 0-.32-.078.944.944 0 0 0-.56.318 5.211 5.211 0 0 0-.61.692 7 7 0 0 1-.59.692.85.85 0 0 1-.52.318.78.78 0 0 1-.25-.056c-.1-.037-.17-.069-.23-.095s-.14-.078-.26-.156-.2-.121-.22-.128a11.691 11.691 0 0 1-2.62-1.942 11.515 11.515 0 0 1-1.94-2.623c-.01-.015-.05-.085-.13-.212s-.13-.216-.16-.268-.05-.128-.09-.229a.709.709 0 0 1-.06-.251.866.866 0 0 1 .32-.513 6.427 6.427 0 0 1 .69-.591 6.051 6.051 0 0 0 .7-.614.915.915 0 0 0 .31-.558.745.745 0 0 0-.07-.318q-.09-.162-.24-.4c-.11-.156-.18-.249-.2-.279-.11-.186-.23-.385-.35-.6s-.24-.448-.39-.709-.25-.461-.33-.6a1.948 1.948 0 0 0-.59-.848.631.631 0 0 0-.24-.034 3.615 3.615 0 0 0-.78.112 4.463 4.463 0 0 0-.77.234A3.021 3.021 0 0 0 .57 1.713 4.323 4.323 0 0 0 0 3.789a3.751 3.751 0 0 0 .04.586 4.982 4.982 0 0 0 .14.642c.07.238.12.415.16.53s.12.322.23.619.18.48.2.547a9.917 9.917 0 0 0 .93 1.953 16.41 16.41 0 0 0 2.4 2.952 16.784 16.784 0 0 0 2.95 2.405 10.35 10.35 0 0 0 1.96.926c.06.022.25.089.54.2l.62.229c.12.041.29.095.53.162a5.2 5.2 0 0 0 .64.139 4.16 4.16 0 0 0 2.67-.53 3.015 3.015 0 0 0 1.36-1.183 4.26 4.26 0 0 0 .23-.764 3.341 3.341 0 0 0 .11-.787.692.692 0 0 0-.03-.234z"/></svg>