<svg xmlns="http://www.w3.org/2000/svg" width="10.28" height="15.44" viewBox="0 0 10.28 15.44"><defs><style>.cls-1{fill:#ed1b2e;fill-rule:evenodd}</style></defs><path id="point.svg" class="cls-1" d="M1253.14 6451.48a2.574 2.574 0 0 1-1.82-4.39 2.57 2.57 0 0 1 4.39 1.82 2.578 2.578 0 0 1-2.57 2.57zm3.64-6.21a5.13 5.13 0 0 0-7.27 0 4.938 4.938 0 0 0-1.51 3.64 4.177 4.177 0 0 0 .33 1.79l3.67 7.78a1.158 1.158 0 0 0 .46.52 1.3 1.3 0 0 0 .68.19 1.295 1.295 0 0 0 1.16-.71l3.65-7.78a4.023 4.023 0 0 0 .34-1.79 4.976 4.976 0 0 0-1.51-3.64z" transform="translate(-1248 -6443.75)"/></svg>