<svg xmlns="http://www.w3.org/2000/svg" width="59" height="76" viewBox="0 0 59 76"><defs><style>.cls-1{fill:#008248;fill-rule:evenodd}</style></defs><path id="specializacia.svg" class="cls-1" d="M982 4530h-47a6 6 0 0 1-6-6v-64a6 6 0 0 1 6-6h47a6 6 0 0 1 6 6v64a6 6 0 0 1-6 6zm3-68a5 5 0 0 0-5-5h-43a5 5 0 0 0-5 5v7a2 2 0 0 0 2 2h49a2 2 0 0 0 2-2v-7zm0 14a2 2 0 0 0-2-2h-49a2 2 0 0 0-2 2v46a5 5 0 0 0 5 5h43a5 5 0 0 0 5-5v-46zm-30 32s-9.636-5.24-3-16c1.092 1.67 1.332 4.5 5 4 .063-.81-2.668-9.85 4-11-.152 1.79-.685 5.35 4 7s5.622 11.5-2 15c.081-2.61-.341-5.73-3-7-.965 2.4-1.108 5.1-5 8zm-6 7h20v2h-20v-2z" transform="translate(-929 -4454)"/></svg>