<svg xmlns="http://www.w3.org/2000/svg" width="75" height="75" viewBox="0 0 75 75"><defs><style>.cls-1{fill:#008349;fill-rule:evenodd}</style></defs><path id="stoimost.svg" class="cls-1" d="M1273.24 4730.36l15.78 4.15 3.98-15.79-3.03-.79-2.59 9.84a37.491 37.491 0 1 0 .51 38.63l-2.71-1.47a34.421 34.421 0 1 1 .15-34.6l-11.29-3zm-16.09 33.78v-2.86a9.952 9.952 0 0 0 6.37-2.39 7.254 7.254 0 0 0 2.39-5.57c0-2.39-.64-4.15-2.07-5.27a13.855 13.855 0 0 0-6.53-2.86h-.16v-7.33a12.025 12.025 0 0 1 5.57 2.23l2.56-3.5a15.667 15.667 0 0 0-8.13-2.87v-1.91h-2.38v1.91a9.851 9.851 0 0 0-6.07 2.39 7.246 7.246 0 0 0-2.38 5.57 6.135 6.135 0 0 0 2.06 5.1 14.932 14.932 0 0 0 6.37 2.71v7.48a13.208 13.208 0 0 1-6.69-3.35l-2.86 3.35a16.387 16.387 0 0 0 9.57 4.31v2.86h2.38zm.16-13.87a9.758 9.758 0 0 1 3.18 1.44 3.5 3.5 0 0 1 .8 2.23 2.607 2.607 0 0 1-1.12 2.24 5.847 5.847 0 0 1-2.86 1.12v-7.03zm-5.58-6.84a3.056 3.056 0 0 1-.79-2.07 2.925 2.925 0 0 1 .95-2.23 5.225 5.225 0 0 1 2.86-1.12v6.86a7.8 7.8 0 0 1-3.02-1.44z" transform="translate(-1218 -4710)"/></svg>